:SAMPLES-PER-SECOND 30
:FULLY-SPECIFIED
:DEGREES
534
root  -15.3024 34.7121 -8.36008 -170.099 0.0677032 179.671
RightUpLeg  -9.55602 -10.0046 1.76036
RightLeg  5.92908 2.22569 0.0927254
RightFoot  3.64045 0.00471063 0.257552
RightToes  -23.7869 -0.10987 -0.214334
Spine  -2.20724 0.302768 -0.221375
Spine1  -4.49361 0.698787 0.200249
HEad  -66.4685 -0.474362 6.24437
LeftShoulder1  -1.94126e-019 -3.10601e-018 -2.51263e-017
LeftArm  -11.0361 24.7395 -82.6612
LeftForeArm  31.2598 -17.4313 -2.84418
LeftHand  -0.476611 -2.60361 7.43755
RightShoulder  -4.96962e-017 0 -2.36833e-017
RightArm  -21.6677 -23.2887 79.4129
RightForeArm  54.5853 14.8582 1.17352
RightHand  -0.498538 -0.591589 -12.1507
LeftUpLeg  -9.54894 -5.779 -0.909221
LeftLeg  6.98189 13.1004 0.745825
LeftFoot  2.84552 -0.0187942 0.808417
LeftToes  -15.093 1.31424e-006 1.14295e-007
535
root  -15.3056 34.7118 -8.36084 -170.097 0.0626068 179.672
RightUpLeg  -9.55634 -9.99186 1.76061
RightLeg  5.92078 2.20559 0.0962496
RightFoot  3.64351 0.00468854 0.257868
RightToes  -23.7701 -0.10987 -0.214334
Spine  -2.19296 0.302759 -0.220924
Spine1  -4.46486 0.698599 0.200948
HEad  -66.4963 -0.498612 6.31722
LeftShoulder1  -1.94126e-019 -3.10601e-018 -2.51263e-017
LeftArm  -10.9798 24.7052 -82.6483
LeftForeArm  31.2897 -17.4821 -2.85293
LeftHand  -0.476452 -2.65732 7.41395
RightShoulder  -4.96962e-017 0 -2.36833e-017
RightArm  -21.6486 -23.2801 79.4248
RightForeArm  54.5441 14.8769 1.16861
RightHand  -0.497542 -0.608298 -12.1796
LeftUpLeg  -9.55008 -5.78679 -0.909736
LeftLeg  6.98094 13.0989 0.747515
LeftFoot  2.83954 -0.0187253 0.807344
LeftToes  -15.0371 1.31424e-006 1.14295e-007
536
root  -15.3077 34.7115 -8.36248 -170.093 0.0679932 179.676
RightUpLeg  -9.55614 -9.99954 1.75958
RightLeg  5.91682 2.21645 0.0953477
RightFoot  3.63818 0.00466625 0.258187
RightToes  -23.7204 -0.10987 -0.214334
Spine  -2.18882 0.302746 -0.220551
Spine1  -4.45667 0.698401 0.200778
HEad  -66.5187 -0.529829 6.39408
LeftShoulder1  -1.94126e-019 -3.10601e-018 -2.51263e-017
LeftArm  -10.9781 24.6922 -82.64
LeftForeArm  31.2734 -17.5123 -2.85705
LeftHand  -0.475544 -2.60693 7.36901
RightShoulder  -4.96962e-017 0 -2.36833e-017
RightArm  -21.6284 -23.2748 79.4343
RightForeArm  54.5516 14.875 1.16893
RightHand  -0.498026 -0.571362 -12.1742
LeftUpLeg  -9.5509 -5.78133 -0.909659
LeftLeg  6.98551 13.0991 0.748272
LeftFoot  2.81126 -0.0186538 0.806233
LeftToes  -14.9389 1.31424e-006 1.14295e-007
537
root  -15.3104 34.7113 -8.36629 -170.086 0.0849457 179.68
RightUpLeg  -9.55529 -10.027 1.75732
RightLeg  5.90151 2.26638 0.0888688
RightFoot  3.69827 0.00464379 0.258507
RightToes  -24.0255 -0.10987 -0.214334
Spine  -2.18715 0.302743 -0.220288
Spine1  -4.45179 0.697994 0.198776
HEad  -66.4323 -0.572568 6.37721
LeftShoulder1  -1.94126e-019 -3.10601e-018 -2.51263e-017
LeftArm  -10.9893 24.6905 -82.6322
LeftForeArm  31.2476 -17.5379 -2.86047
LeftHand  -0.474117 -2.60936 7.38236
RightShoulder  -4.96962e-017 0 -2.36833e-017
RightArm  -21.6276 -23.2618 79.4557
RightForeArm  54.5569 14.8787 1.16791
RightHand  -0.499364 -0.632306 -12.1334
LeftUpLeg  -9.55133 -5.77746 -0.90993
LeftLeg  6.99096 13.1058 0.747855
LeftFoot  2.8101 -0.0185734 0.804984
LeftToes  -15.0313 1.31424e-006 1.14295e-007
538
root  -15.3142 34.7111 -8.37255 -170.078 0.0905609 179.683
RightUpLeg  -9.55407 -10.038 1.75636
RightLeg  5.8972 2.26563 0.0886691
RightFoot  3.64887 0.00462123 0.25883
RightToes  -23.7679 -0.10987 -0.214334
Spine  -2.18613 0.302758 -0.220165
Spine1  -4.45517 0.697484 0.196639
HEad  -66.3301 -0.616336 6.35219
LeftShoulder1  -1.94126e-019 -3.10601e-018 -2.51263e-017
LeftArm  -11.0153 24.6819 -82.6233
LeftForeArm  31.2387 -17.5311 -2.86362
LeftHand  -0.473232 -2.58704 7.36084
RightShoulder  -4.96962e-017 0 -2.36833e-017
RightArm  -21.6458 -23.2682 79.4685
RightForeArm  54.5458 14.8816 1.16718
RightHand  -0.49903 -0.641524 -12.1453
LeftUpLeg  -9.55158 -5.74801 -0.908485
LeftLeg  7.00114 13.085 0.750835
LeftFoot  2.78385 -0.0184671 0.803332
LeftToes  -14.977 1.31424e-006 1.14295e-007
539
root  -15.3151 34.7109 -8.37583 -170.075 0.098175 179.685
RightUpLeg  -9.55145 -10.0293 1.75731
RightLeg  5.89069 2.27665 0.0888357
RightFoot  3.69859 0.00459862 0.259153
RightToes  -23.9827 -0.10987 -0.214334
Spine  -2.18564 0.302805 -0.220213
Spine1  -4.45559 0.696973 0.194422
HEad  -66.2953 -0.614392 6.35747
LeftShoulder1  -1.94126e-019 -3.10601e-018 -2.51263e-017
LeftArm  -11.0271 24.6758 -82.6151
LeftForeArm  31.2561 -17.513 -2.8659
LeftHand  -0.471641 -2.59599 7.39877
RightShoulder  -4.96962e-017 0 -2.36833e-017
RightArm  -21.6494 -23.2715 79.4845
RightForeArm  54.5463 14.8911 1.16482
RightHand  -0.501172 -0.611877 -12.0931
LeftUpLeg  -9.55114 -5.78241 -0.913664
LeftLeg  7.00503 13.1295 0.744976
LeftFoot  2.79097 -0.0183725 0.801861
LeftToes  -14.9426 1.31424e-006 1.14295e-007
540
root  -15.3231 34.7109 -8.38566 -170.066 0.110016 179.689
RightUpLeg  -9.5345 -9.97299 1.74701
RightLeg  5.87265 2.218 0.0858734
RightFoot  3.65336 0.00457602 0.259476
RightToes  -23.8023 -0.10987 -0.214334
Spine  -2.18561 0.302894 -0.220461
Spine1  -4.46052 0.696565 0.192202
HEad  -66.1588 -0.589519 6.31116
LeftShoulder1  -1.94126e-019 -3.10601e-018 -2.51263e-017
LeftArm  -11.0421 24.6871 -82.6153
LeftForeArm  31.2023 -17.5405 -2.8547
LeftHand  -0.471555 -2.55016 7.34294
RightShoulder  -4.96962e-017 0 -2.36833e-017
RightArm  -21.628 -23.2732 79.4898
RightForeArm  54.5419 14.898 1.16318
RightHand  -0.500943 -0.613668 -12.1032
LeftUpLeg  -9.55079 -5.76064 -0.922671
LeftLeg  7.00542 13.1191 0.74623
LeftFoot  2.76827 -0.0183081 0.80086
LeftToes  -14.8593 1.31424e-006 1.14295e-007
541
root  -15.3249 34.7108 -8.39059 -170.063 0.114548 179.693
RightUpLeg  -9.53197 -9.96098 1.74391
RightLeg  5.87833 2.21237 0.0858777
RightFoot  3.65554 0.00455348 0.259798
RightToes  -23.7976 -0.10987 -0.214334
Spine  -2.18593 0.303036 -0.220942
Spine1  -4.46625 0.696366 0.190055
HEad  -66.13 -0.611529 6.31094
LeftShoulder1  -1.94126e-019 -3.10601e-018 -2.51263e-017
LeftArm  -11.0429 24.691 -82.6184
LeftForeArm  31.2379 -17.5329 -2.85272
LeftHand  -0.471492 -2.60248 7.35251
RightShoulder  -4.96962e-017 0 -2.36833e-017
RightArm  -21.6343 -23.2742 79.4971
RightForeArm  54.5359 14.9078 1.16084
RightHand  -0.500701 -0.617612 -12.1135
LeftUpLeg  -9.5501 -5.75608 -0.923708
LeftLeg  7.01625 13.1165 0.746369
LeftFoot  2.77501 -0.0182431 0.79985
LeftToes  -14.9554 1.31424e-006 1.14295e-007
542
root  -15.3274 34.7106 -8.39566 -170.058 0.114792 179.696
RightUpLeg  -9.52733 -9.95696 1.74247
RightLeg  5.87713 2.20466 0.0862189
RightFoot  3.65077 0.00453105 0.260118
RightToes  -23.7857 -0.10987 -0.214334
Spine  -2.18651 0.303243 -0.221684
Spine1  -4.46989 0.69648 0.188057
HEad  -66.1237 -0.646109 6.35654
LeftShoulder1  -1.94126e-019 -3.10601e-018 -2.51263e-017
LeftArm  -11.0479 24.6918 -82.6197
LeftForeArm  31.2773 -17.5149 -2.85558
LeftHand  -0.471147 -2.62415 7.37338
RightShoulder  -4.96962e-017 0 -2.36833e-017
RightArm  -21.635 -23.2734 79.4928
RightForeArm  54.5347 14.9071 1.16117
RightHand  -0.499546 -0.579672 -12.1542
LeftUpLeg  -9.54816 -5.75823 -0.924613
LeftLeg  7.0201 13.1171 0.74604
LeftFoot  2.7509 -0.0181783 0.798844
LeftToes  -14.8694 1.31424e-006 1.14295e-007
543
root  -15.3311 34.7104 -8.40064 -170.053 0.113007 179.698
RightUpLeg  -9.52573 -9.94678 1.74177
RightLeg  5.87461 2.17835 0.0890687
RightFoot  3.64546 0.00450879 0.260436
RightToes  -23.7798 -0.10987 -0.214334
Spine  -2.18725 0.303525 -0.223243
Spine1  -4.47233 0.69739 0.187144
HEad  -66.1441 -0.681724 6.39057
LeftShoulder1  -1.94126e-019 -3.10601e-018 -2.51263e-017
LeftArm  -11.0565 24.6922 -82.6297
LeftForeArm  31.2499 -17.5211 -2.85614
LeftHand  -0.470795 -2.58313 7.37616
RightShoulder  -4.96962e-017 0 -2.36833e-017
RightArm  -21.6356 -23.2715 79.4868
RightForeArm  54.5444 14.8984 1.16352
RightHand  -0.499383 -0.580235 -12.1628
LeftUpLeg  -9.54607 -5.7723 -0.926166
LeftLeg  7.02234 13.1194 0.745491
LeftFoot  2.74825 -0.0181147 0.797854
LeftToes  -14.863 1.31424e-006 1.14295e-007
